<svg width="613" height="340" viewBox="0 0 613 340" fill="none" xmlns="http://www.w3.org/2000/svg">
<path d="M329.063 132.069C329.301 131.275 330.138 130.825 330.931 131.063L343.862 134.942C344.655 135.181 345.105 136.017 344.867 136.81C344.629 137.604 343.793 138.054 343 137.816L331.506 134.368L328.058 145.862C327.819 146.655 326.983 147.105 326.19 146.867C325.396 146.629 324.946 145.793 325.184 145L329.063 132.069ZM376.5 165C376.5 166.5 376.499 166.5 376.499 166.5C376.498 166.5 376.497 166.5 376.497 166.5C376.495 166.5 376.494 166.5 376.492 166.5C376.489 166.5 376.484 166.5 376.479 166.5C376.468 166.5 376.454 166.5 376.437 166.499C376.402 166.499 376.353 166.498 376.29 166.496C376.166 166.493 375.988 166.486 375.76 166.472C375.304 166.445 374.649 166.391 373.824 166.285C372.175 166.072 369.842 165.65 367.066 164.811C361.51 163.131 354.174 159.78 346.979 153.099L348 152L349.021 150.901C355.826 157.22 362.74 160.369 367.934 161.939C370.533 162.725 372.7 163.115 374.207 163.309C374.96 163.406 375.547 163.454 375.939 163.477C376.135 163.489 376.282 163.495 376.377 163.497C376.424 163.499 376.459 163.499 376.479 163.5C376.49 163.5 376.497 163.5 376.5 163.5C376.502 163.5 376.503 163.5 376.503 163.5C376.503 163.5 376.502 163.5 376.502 163.5C376.502 163.5 376.501 163.5 376.501 163.5C376.501 163.5 376.5 163.5 376.5 165ZM348 152L346.979 153.099C339.934 146.557 335.509 141.63 332.833 138.318C331.495 136.661 330.594 135.407 330.021 134.556C329.735 134.131 329.531 133.806 329.395 133.582C329.327 133.47 329.276 133.383 329.241 133.321C329.223 133.29 329.209 133.266 329.199 133.247C329.194 133.238 329.19 133.23 329.187 133.224C329.185 133.221 329.183 133.219 329.182 133.217C329.182 133.216 329.181 133.215 329.181 133.214C329.18 133.213 329.18 133.213 329.18 133.212C329.18 133.212 329.179 133.211 330.5 132.5C331.821 131.789 331.82 131.788 331.82 131.788C331.82 131.788 331.82 131.787 331.82 131.787C331.819 131.786 331.819 131.786 331.819 131.786C331.819 131.785 331.819 131.785 331.819 131.785C331.819 131.785 331.82 131.787 331.822 131.791C331.826 131.798 331.833 131.811 331.845 131.831C331.867 131.871 331.906 131.936 331.961 132.028C332.071 132.21 332.249 132.494 332.51 132.881C333.031 133.655 333.88 134.839 335.167 136.432C337.741 139.62 342.066 144.443 349.021 150.901L348 152Z" fill="white"/>
<path d="M345.095 25.3526C344.805 26.1284 345.198 26.9928 345.974 27.2833L358.617 32.0168C359.393 32.3073 360.257 31.9138 360.548 31.138C360.838 30.3622 360.445 29.4978 359.669 29.2073L348.431 24.9997L352.638 13.7616C352.929 12.9857 352.535 12.1213 351.76 11.8308C350.984 11.5404 350.119 11.9338 349.829 12.7097L345.095 25.3526ZM402.789 27.8277C403.696 26.6333 403.696 26.6328 403.695 26.6324C403.695 26.6322 403.694 26.6317 403.694 26.6313C403.693 26.6305 403.692 26.6296 403.69 26.6285C403.687 26.6264 403.684 26.6237 403.68 26.6205C403.671 26.6142 403.66 26.6058 403.646 26.5954C403.617 26.5745 403.578 26.5457 403.527 26.5095C403.426 26.437 403.28 26.3349 403.09 26.2079C402.711 25.954 402.157 25.6006 401.435 25.186C399.993 24.3571 397.881 23.2824 395.163 22.2711C389.723 20.2477 381.853 18.4781 372.083 19.4453L372.231 20.938L372.379 22.4307C381.621 21.5158 389.03 23.191 394.117 25.0829C396.661 26.0294 398.623 27.0299 399.94 27.7869C400.599 28.1653 401.095 28.4825 401.421 28.7009C401.585 28.8102 401.705 28.8947 401.782 28.9498C401.821 28.9773 401.848 28.9975 401.865 29.0098C401.873 29.0159 401.879 29.02 401.882 29.0221C401.883 29.0231 401.884 29.0236 401.884 29.0236C401.884 29.0236 401.883 29.0235 401.883 29.0232C401.883 29.0231 401.883 29.0228 401.882 29.0228C401.882 29.0224 401.882 29.0221 402.789 27.8277ZM372.231 20.938L372.083 19.4453C362.516 20.3924 356.012 21.6385 351.877 22.6577C349.809 23.1673 348.334 23.6205 347.363 23.9515C346.877 24.1171 346.518 24.2521 346.274 24.3485C346.153 24.3967 346.06 24.4352 345.994 24.463C345.961 24.4769 345.935 24.4881 345.916 24.4965C345.907 24.5008 345.899 24.5043 345.892 24.5071C345.889 24.5085 345.887 24.5097 345.884 24.5107C345.883 24.5113 345.882 24.5117 345.881 24.5122C345.881 24.5124 345.88 24.5127 345.88 24.5128C345.879 24.513 345.879 24.5133 346.5 25.8785C347.121 27.2438 347.121 27.244 347.12 27.2442C347.12 27.2443 347.12 27.2445 347.12 27.2446C347.119 27.2449 347.119 27.2451 347.118 27.2452C347.118 27.2455 347.117 27.2456 347.118 27.2455C347.118 27.2454 347.12 27.2445 347.124 27.2429C347.131 27.2396 347.145 27.2334 347.166 27.2245C347.208 27.2066 347.278 27.1775 347.377 27.1384C347.575 27.0602 347.89 26.9416 348.331 26.791C349.214 26.4898 350.606 26.0607 352.595 25.5705C356.573 24.59 362.934 23.3657 372.379 22.4307L372.231 20.938Z" fill="black"/>
<path d="M0.34107 322.138C-0.184883 321.498 -0.0923912 320.552 0.54766 320.026L10.9779 311.455C11.6179 310.93 12.5632 311.022 13.0891 311.662C13.6151 312.302 13.5226 313.247 12.8825 313.773L3.61122 321.392L11.2298 330.663C11.7558 331.303 11.6633 332.248 11.0232 332.774C10.3832 333.3 9.43795 333.208 8.91199 332.568L0.34107 322.138ZM54.1279 301.122C55.3731 301.958 55.3727 301.959 55.3723 301.959C55.3721 301.96 55.3716 301.96 55.3713 301.961C55.3705 301.962 55.3697 301.963 55.3687 301.965C55.3667 301.968 55.3642 301.971 55.3612 301.976C55.3553 301.984 55.3473 301.996 55.3373 302.01C55.3173 302.039 55.2893 302.079 55.253 302.13C55.1806 302.231 55.0755 302.375 54.9371 302.557C54.6604 302.92 54.2505 303.434 53.7023 304.059C52.6062 305.31 50.9554 307.011 48.7105 308.848C44.2187 312.523 37.3455 316.744 27.7884 318.992L27.4451 317.531L27.1018 316.071C36.1425 313.945 42.6107 309.962 46.8108 306.526C48.9119 304.807 50.4448 303.225 51.4458 302.082C51.9462 301.511 52.3132 301.05 52.5513 300.738C52.6703 300.582 52.7571 300.463 52.8121 300.386C52.8397 300.347 52.8593 300.319 52.871 300.302C52.8769 300.294 52.8808 300.288 52.8828 300.285C52.8837 300.284 52.8842 300.283 52.8842 300.283C52.8842 300.283 52.8841 300.283 52.8839 300.284C52.8837 300.284 52.8835 300.284 52.8834 300.284C52.8831 300.285 52.8828 300.285 54.1279 301.122ZM27.4451 317.531L27.7884 318.992C18.4296 321.192 11.8721 322.118 7.63009 322.492C5.50882 322.679 3.96567 322.728 2.94001 322.729C2.42716 322.73 2.0436 322.718 1.78179 322.706C1.65088 322.7 1.5504 322.694 1.4794 322.688C1.4439 322.686 1.41577 322.684 1.3949 322.682C1.38446 322.681 1.37583 322.68 1.36901 322.68C1.36559 322.679 1.36263 322.679 1.36011 322.679C1.35885 322.679 1.35771 322.679 1.35667 322.678C1.35615 322.678 1.35546 322.678 1.3552 322.678C1.35454 322.678 1.3539 322.678 1.49998 321.185C1.64606 319.692 1.64548 319.692 1.64493 319.692C1.64478 319.692 1.64426 319.692 1.64397 319.692C1.64338 319.692 1.64291 319.692 1.64255 319.692C1.64183 319.692 1.64157 319.692 1.64175 319.692C1.64213 319.692 1.64433 319.692 1.64836 319.693C1.65642 319.693 1.67182 319.695 1.69467 319.696C1.74038 319.699 1.81592 319.704 1.92223 319.709C2.13488 319.719 2.47063 319.73 2.93718 319.729C3.87032 319.728 5.32636 319.684 7.36664 319.504C11.4477 319.144 17.8628 318.243 27.1018 316.071L27.4451 317.531Z" fill="white"/>
<rect x="393" y="19.5" width="196" height="47" rx="23.5" fill="white"/>
<rect x="393" y="19.5" width="196" height="47" rx="23.5" stroke="black"/>
<text fill="black" style="white-space: pre" xml:space="preserve" font-family="Inter" font-size="12" letter-spacing="0em"><tspan x="441.5" y="38.8636">Change which sites are&#x2028;</tspan><tspan x="441.5" y="53.8636">visible on the track</tspan></text>
<g clip-path="url(#clip0_4_99)">
<rect width="30" height="30" transform="translate(403.5 28)" fill="white"/>
<path d="M418.441 57.8828C416.381 57.8828 414.447 57.4922 412.641 56.7109C410.834 55.9394 409.247 54.8701 407.88 53.5029C406.513 52.1358 405.438 50.5488 404.657 48.7422C403.886 46.9356 403.5 45.002 403.5 42.9414C403.5 40.8809 403.886 38.9473 404.657 37.1406C405.438 35.334 406.513 33.7471 407.88 32.3799C409.247 31.0029 410.834 29.9287 412.641 29.1572C414.447 28.3857 416.381 28 418.441 28C420.502 28 422.436 28.3857 424.242 29.1572C426.049 29.9287 427.636 31.0029 429.003 32.3799C430.37 33.7471 431.439 35.334 432.211 37.1406C432.992 38.9473 433.383 40.8809 433.383 42.9414C433.383 45.002 432.992 46.9356 432.211 48.7422C431.439 50.5488 430.37 52.1358 429.003 53.5029C427.636 54.8701 426.049 55.9394 424.242 56.7109C422.436 57.4922 420.502 57.8828 418.441 57.8828ZM418.441 55.3926C420.16 55.3926 421.771 55.0703 423.275 54.4258C424.779 53.7812 426.103 52.8877 427.245 51.7451C428.388 50.6026 429.281 49.2793 429.926 47.7754C430.57 46.2714 430.893 44.6601 430.893 42.9414C430.893 41.2227 430.57 39.6113 429.926 38.1074C429.281 36.5938 428.388 35.2705 427.245 34.1377C426.103 32.9951 424.779 32.1016 423.275 31.457C421.771 30.8125 420.16 30.4902 418.441 30.4902C416.723 30.4902 415.111 30.8125 413.607 31.457C412.104 32.1016 410.78 32.9951 409.638 34.1377C408.495 35.2705 407.602 36.5938 406.957 38.1074C406.312 39.6113 405.99 41.2227 405.99 42.9414C405.99 44.6601 406.312 46.2714 406.957 47.7754C407.602 49.2793 408.495 50.6026 409.638 51.7451C410.78 52.8877 412.104 53.7812 413.607 54.4258C415.111 55.0703 416.723 55.3926 418.441 55.3926ZM410.473 40.041C410.15 40.041 409.882 39.9482 409.667 39.7627C409.462 39.5673 409.359 39.3183 409.359 39.0156C409.359 38.7031 409.462 38.4541 409.667 38.2686C409.882 38.0732 410.15 37.9756 410.473 37.9756H426.439C426.762 37.9756 427.025 38.0732 427.23 38.2686C427.445 38.4541 427.553 38.7031 427.553 39.0156C427.553 39.3183 427.445 39.5673 427.23 39.7627C427.025 39.9482 426.762 40.041 426.439 40.041H410.473ZM412.641 44.8897C412.318 44.8897 412.05 44.7969 411.835 44.6113C411.63 44.4258 411.527 44.1768 411.527 43.8642C411.527 43.5518 411.63 43.3028 411.835 43.1172C412.05 42.9219 412.318 42.8242 412.641 42.8242H424.271C424.594 42.8242 424.857 42.9219 425.062 43.1172C425.277 43.3028 425.385 43.5518 425.385 43.8642C425.385 44.1768 425.277 44.4258 425.062 44.6113C424.857 44.7969 424.594 44.8897 424.271 44.8897H412.641ZM414.911 49.7529C414.579 49.7529 414.311 49.6601 414.105 49.4746C413.9 49.2793 413.798 49.0302 413.798 48.7276C413.798 48.415 413.9 48.166 414.105 47.9804C414.311 47.7851 414.579 47.6876 414.911 47.6876H422.016C422.338 47.6876 422.602 47.7851 422.807 47.9804C423.012 48.166 423.114 48.415 423.114 48.7276C423.114 49.0302 423.012 49.2793 422.807 49.4746C422.602 49.6601 422.338 49.7529 422.016 49.7529H414.911Z" fill="#3D3D3D"/>
</g>
<rect x="21" y="255.5" width="196" height="47" rx="23.5" fill="white"/>
<rect x="21" y="255.5" width="196" height="47" rx="23.5" stroke="black"/>
<text fill="black" style="white-space: pre" xml:space="preserve" font-family="Inter" font-size="12" letter-spacing="0em"><tspan x="68.5" y="275.864">Hover over a transcript&#10;</tspan><tspan x="68.5" y="290.864">to see coverage</tspan></text>
<path d="M39.9714 290.336V264.05L59.0286 283.107H47.8572L47.2 283.271L39.9714 290.336Z" fill="white"/>
<path d="M54.9214 291.486L49.0071 293.95L41.2857 275.714L47.3643 273.25L54.9214 291.486Z" fill="white"/>
<path d="M47.651 278.209L44.6212 279.481L49.7088 291.6L52.7386 290.328L47.651 278.209Z" fill="black"/>
<path d="M41.6143 267.993V286.393L46.5428 281.629L47.2 281.464H55.0857L41.6143 267.993Z" fill="black"/>
<rect x="370" y="141.5" width="242" height="47" rx="23.5" fill="white"/>
<rect x="370" y="141.5" width="242" height="47" rx="23.5" stroke="black"/>
<text fill="black" style="white-space: pre" xml:space="preserve" font-family="Inter" font-size="12" letter-spacing="0em"><tspan x="427.641" y="161.864"> regions have a&#x2028;</tspan><tspan x="430.16" y="176.864"> are normalised and skipped</tspan></text>
<text fill="black" style="white-space: pre" xml:space="preserve" font-family="Inter" font-size="12" font-weight="bold" letter-spacing="0em"><tspan x="388.5" y="161.864">Exonic</tspan><tspan x="388.5" y="176.864">Introns</tspan></text>
<line x1="520.5" y1="163" x2="592.5" y2="163" stroke="black" stroke-width="2"/>
<line x1="519.5" y1="164" x2="519.5" y2="154" stroke="black" stroke-width="2"/>
<line x1="592.5" y1="164" x2="592.5" y2="154" stroke="black" stroke-width="2"/>
<text fill="black" style="white-space: pre" xml:space="preserve" font-family="Inter" font-size="12" font-style="italic" letter-spacing="0em"><tspan x="533.5" y="159.864">bracket</tspan></text>
<defs>
<clipPath id="clip0_4_99">
<rect width="30" height="30" fill="white" transform="translate(403.5 28)"/>
</clipPath>
</defs>
</svg>
